{"title":"Nightmare City 1980 DVDRip Xvid AC3 LKRG","uid":10141173,"size":779007780,"categoryP":"video","categoryS":"movies","magnet":"?xt=urn:btih:be082ce10eddb7846690239a4f3be7f729d565cc&amp;dn=Nightmare+City+1980+DVDRip+Xvid+AC3+LKRG&amp;tr=udp%3A%2F%2Ftracker.openbittorrent.com%3A80&amp;tr=udp%3A%2F%2Fopen.demonii.com%3A1337&amp;tr=udp%3A%2F%2Ftracker.coppersurfer.tk%3A6969&amp;tr=udp%3A%2F%2Fexodus.desync.com%3A6969","seeders":3,"leechers":2,"uploader":".BONE.","files":2,"time":1399999728,"description":"\nRuntime ..........: 1h 31mn\nFile Size ........: 743 MiB\nResolution .......: 704 x 288 &lt;a href=&quot;\nhttp://www.imdb.com/title/tt0080931/&quot; rel=&quot;nofollow&quot; target=&quot;_NEW&quot;&gt;\nhttp://www.imdb.com/title/tt0080931/&lt;/a&gt;\nGenre ............: Horror\nLanguage .........: English\nSubtitles ........: None\nGeneral\nComplete name : Nightmare City 1980 DVDRip Xvid AC3 LKRGNightmareC_LKRG.avi\nFormat : AVI\nFormat/Info : Audio Video Interleave\nFile size : 743 MiB\nDuration : 1h 31mn\nOverall bit rate : 1 129 Kbps\nWriting application : VirtualDubMod 1.5.10.2 (build 2540/release)\nWriting library : VirtualDubMod build 2540/release\nVideo\nID : 0\nFormat : MPEG-4 Visual\nFormat profile : Advanced Simple@L5\nFormat settings, BVOP : 2\nFormat settings, QPel : No\nFormat settings, GMC : No warppoints\nFormat settings, Matrix : Default (H.263)\nMuxing mode : Packed bitstream\nCodec ID : XVID\nCodec ID/Hint : XviD\nDuration : 1h 31mn\nBit rate : 896 Kbps\nWidth : 704 pixels\nHeight : 288 pixels\nDisplay aspect ratio : 2.40:1\nFrame rate : 23.976 fps\nColor space : YUV\nChroma subsampling : 4:2:0\nBit depth : 8 bits\nScan type : Progressive\nCompression mode : Lossy\nBits/(Pixel*Frame) : 0.184\nStream size : 589 MiB (79%)\nWriting library : XviD 1.2.1 (UTC 2008-12-04)\nAudio\nID : 1\nFormat : AC-3\nFormat/Info : Audio Coding 3\nMode extension : CM (complete main)\nFormat settings, Endianness : Big\nCodec ID : 2000\nDuration : 1h 31mn\nBit rate mode : Constant\nBit rate : 224 Kbps\nChannel(s) : 2 channels\nChannel positions : Front: L R\nSampling rate : 48.0 KHz\nBit depth : 16 bits\nCompression mode : Lossy\nStream size : 147 MiB (20%)\nAlignment : Split accross interleaves\nInterleave, duration : 42 ms (1.00 video frame)\nInterleave, preload duration : 500 ms","torrent":{"xt":"urn:btih:be082ce10eddb7846690239a4f3be7f729d565cc","amp;dn":"Nightmare+City+1980+DVDRip+Xvid+AC3+LKRG","amp;tr":["udp%3A%2F%2Ftracker.openbittorrent.com%3A80","udp%3A%2F%2Fopen.demonii.com%3A1337","udp%3A%2F%2Ftracker.coppersurfer.tk%3A6969","udp%3A%2F%2Fexodus.desync.com%3A6969"],"infoHash":"be082ce10eddb7846690239a4f3be7f729d565cc","infoHashBuffer":{"type":"Buffer","data":[190,8,44,225,14,221,183,132,102,144,35,154,79,59,231,247,41,213,101,204]},"announce":[],"urlList":[]}}